<svg id="user-journey" xmlns="http://www.w3.org/2000/svg" viewBox="0 0 1019.9 573.41"><title>budget</title><path d="M452.18,477.71c-110.42,0-200.32-89.75-200.46-200.21S341.39,76.93,451.92,76.79h0a200.46,200.46,0,0,1,.49,400.92ZM451.93,80c-108.78.14-197.16,88.75-197,197.53s88.61,197,197.27,197h.26A197.28,197.28,0,0,0,452,80Z" style="fill:#5b66af"/><path d="M626.65,428.62,518.53,323.81a11.23,11.23,0,0,1-.25-15.89l24.86-25.65A11.24,11.24,0,0,1,559,282l67.56,65.48a11.23,11.23,0,0,0,15.65,0L798.5,195.59a11.25,11.25,0,0,1,15.9.22l24.89,25.61a11.23,11.23,0,0,1-.22,15.89L642.31,428.61A11.24,11.24,0,0,1,626.65,428.62Z" style="fill:#fff"/><path d="M634.47,433.41a12.84,12.84,0,0,1-8.93-3.64L517.42,325a12.83,12.83,0,0,1-.28-18.15L542,281.17a12.85,12.85,0,0,1,18.14-.29l67.56,65.49a9.6,9.6,0,0,0,13.43,0L797.39,194.44a12.83,12.83,0,0,1,18.15.26l24.9,25.61a12.83,12.83,0,0,1-.26,18.15L643.42,429.75A12.8,12.8,0,0,1,634.47,433.41Zm-6.71-5.93a9.61,9.61,0,0,0,13.44,0L838,236.17a9.65,9.65,0,0,0,.19-13.64l-24.9-25.61a9.57,9.57,0,0,0-6.78-2.92,9.75,9.75,0,0,0-6.86,2.73L643.35,348.64a12.76,12.76,0,0,1-17.87,0l-67.56-65.49a9.65,9.65,0,0,0-13.63.21L519.42,309a9.66,9.66,0,0,0,.22,13.64Z" style="fill:#5b66af"/><path d="M365.39,408.93a1.6,1.6,0,0,1-1.13-.46,1.58,1.58,0,0,1-.46-1.13l0-20.86a1.6,1.6,0,0,1,.81-1.39,82.3,82.3,0,0,0,42.21-71.68,196,196,0,0,0-1.72-27.61l-37.57.05h0a1.59,1.59,0,0,1-1.59-1.59l0-26.29a1.6,1.6,0,0,1,1.59-1.59l33.33,0c-2.08-13.84-3.94-28.61-4-43.46-.06-48.84,30.41-83,74.11-83h.15c22.92,0,36.14,6.67,42,10.65a1.6,1.6,0,0,1,.64,1.74l-7.53,27.55a1.6,1.6,0,0,1-.95,1.06,1.62,1.62,0,0,1-1.42-.12c-6-3.69-16.59-8.07-32.72-8.07H471c-14.94,0-40,6.62-40,50.61,0,17.2,2.19,30.39,4.35,43l53.12-.07h0a1.6,1.6,0,0,1,1.6,1.6l0,26.28a1.6,1.6,0,0,1-1.59,1.6l-49.73.06c1.1,15.57,1.7,30.77-1.61,45.49a89.64,89.64,0,0,1-24.53,44l109.65-.14h0a1.57,1.57,0,0,1,1.59,1.59l0,30.46a1.59,1.59,0,0,1-1.59,1.59l-157,.2ZM367,387.41l0,18.34,153.78-.2,0-27.27-111.12.14h0a1.59,1.59,0,0,1-1.59-1.59V376a1.59,1.59,0,0,1,.5-1.16,86.77,86.77,0,0,0,25.58-44.29c3.34-14.82,2.58-30.34,1.42-46.26a1.61,1.61,0,0,1,.42-1.2,1.59,1.59,0,0,1,1.16-.5l49.85-.07,0-23.1-52.87.07h0a1.59,1.59,0,0,1-1.57-1.32c-2.26-13.2-4.6-26.84-4.62-44.91-.05-34.15,15.67-53.76,43.13-53.8h.12c15.37,0,26,3.85,32.56,7.48l6.68-24.44c-6-3.8-18.36-9.47-39.25-9.47h-.15c-20.07,0-38.13,7.75-50.85,21.76-13.16,14.5-20.1,34.59-20.07,58.09,0,15.3,2,30.58,4.2,44.82a1.58,1.58,0,0,1-.37,1.27,1.56,1.56,0,0,1-1.21.56l-33.58,0,0,23.1,37.37,0h0A1.6,1.6,0,0,1,408,284,199.21,199.21,0,0,1,410,313.41,85.51,85.51,0,0,1,367,387.41Z" style="fill:#5b66af"/></svg>