<svg id="user-journey" xmlns="http://www.w3.org/2000/svg" viewBox="0 0 1019.9 573.41"><title>dream-om-plot</title><polygon points="199.56 507.06 478.05 517.36 478.35 517.38 810.9 505.45 811.15 505.18 811.15 491.69 810.85 491.69 478.05 494.28 204.14 491.85 204.09 491.85 203.49 492.24 201.66 493.42 199.56 507.06" style="fill:#010101;opacity:0.10000000149011612;isolation:isolate"/><path d="M512.31,208.18,363.9,100.83,174.69,236.68a5.82,5.82,0,0,1-8.09-1.3L154,218a5.81,5.81,0,0,1,1.31-8.14l208.19-149L518.19,173.54Z" style="fill:none;stroke:#45c1be;stroke-linecap:round;stroke-linejoin:round;stroke-width:3.1857252846184565px"/><polyline points="230.86 197.84 230.86 493.09 494.4 493.09 494.4 195.38" style="fill:none;stroke:#45c1be;stroke-linecap:round;stroke-linejoin:round;stroke-width:3.1857252846184565px"/><polyline points="520.18 195.73 773.23 195.73 773.23 493.09 494.4 493.09" style="fill:none;stroke:#45c1be;stroke-linecap:round;stroke-linejoin:round;stroke-width:3.1857252846184565px"/><polyline points="437.78 491.1 437.78 307.07 289.14 307.07 289.14 491.1" style="fill:none;stroke:#45c1be;stroke-linecap:round;stroke-linejoin:round;stroke-width:3.1857252846184565px"/><polyline points="659.55 489.8 659.55 356.61 587 356.61 587 491.45" style="fill:none;stroke:#45c1be;stroke-linecap:round;stroke-linejoin:round;stroke-width:3.1857252846184565px"/><path d="M772.84,309.85a161,161,0,0,0-241.64-211c-1,.91-1.88,1.84-2.81,2.77-60.94,61.44-62,161.47-2.36,224.17a160.87,160.87,0,0,0,192,31.5c3.92-2.08,8-4.29,11.72-6.79,4-2.65,7.6-5.81,11.31-8.83l116.4,121a7.84,7.84,0,0,0,11.08.22L887.1,445.2a8,8,0,0,0,.27-11.27L771.06,312ZM729.43,305a125,125,0,0,1-178-4.78c-46-49.28-44.39-127.07,3.68-174.37a125,125,0,0,1,180.79,5.68c44.77,49.88,41.37,126.51-6.45,173.47Z" style="fill:#fff;stroke:#45c1be;stroke-linecap:round;stroke-linejoin:round;stroke-width:2.9557466793694394px"/></svg>