<svg id="user-journey" xmlns="http://www.w3.org/2000/svg" viewBox="0 0 1019.9 573.41"><title>dream-om-arc</title><polyline points="215 478.28 227.49 275.86 358.07 62.97 357.89 34.28 211.18 270.82 197.31 477.21" style="fill:none;stroke:#5b66af;stroke-linecap:round;stroke-linejoin:round;stroke-width:3.1857252846184565px"/><polygon points="174.69 491.86 513.02 517.75 513.31 517.77 840.75 497.63 841 497.62 841 483.79 513.02 495.05 179.19 476.9 177 476.88 176.75 478.44 174.69 491.86" style="fill:none;stroke:#5b66af;stroke-linecap:round;stroke-linejoin:round;stroke-width:2.456798873279247px"/><polygon points="523.36 331.62 625.8 351.79 625.84 351.8 805.26 384.61 804.66 370.14 523.47 313.32 523.36 331.62" style="fill:none;stroke:#5b66af;stroke-linecap:round;stroke-linejoin:round;stroke-width:3.1857252846184565px"/><polyline points="657.46 489.43 654.99 267.6 632.7 260.1 635.47 412.64 636.9 490.23" style="fill:none;stroke:#5b66af;stroke-linecap:round;stroke-linejoin:round;stroke-width:3.1857252846184565px"/><polygon points="153.53 503.24 506.19 536.98 506.45 537 855.8 508.09 856.02 507.85 856.02 496.05 855.76 496.05 506.19 516.79 157.53 489.94 157.49 489.94 156.96 490.28 155.36 491.32 153.53 503.24" style="fill:#010101;opacity:0.10000000149011612;isolation:isolate"/><polyline points="821.63 483.65 813.64 305.56 521.66 203.05 358.26 33.77 358.07 62.97 501.51 211.69 496.9 493.63" style="fill:none;stroke:#5b66af;stroke-linecap:round;stroke-linejoin:round;stroke-width:3.1857252846184565px"/><polyline points="522.46 494.04 523.97 223.78 803.27 317.08 807.98 484.36" style="fill:none;stroke:#5b66af;stroke-linecap:round;stroke-linejoin:round;stroke-width:3.1857252846184565px"/></svg>