<svg id="user-journey" xmlns="http://www.w3.org/2000/svg" viewBox="0 0 1019.9 573.41"><title>feasibility</title><path d="M671.92,522.14H313.27a1.6,1.6,0,0,1-1.59-1.6V104a1.6,1.6,0,0,1,.41-1.06l54.18-60.1a1.64,1.64,0,0,1,1.19-.52H671.92a1.59,1.59,0,0,1,1.59,1.59V520.54A1.6,1.6,0,0,1,671.92,522.14Zm-357-3.19H670.32V45.52H368.17l-53.3,59.12Z" style="fill:#5b66af"/><path d="M598.7,209.23h-229a1.6,1.6,0,0,1-1.59-1.6V179.86a1.59,1.59,0,0,1,1.59-1.59h229a1.59,1.59,0,0,1,1.59,1.59v27.77A1.6,1.6,0,0,1,598.7,209.23ZM371.32,206H597.1V181.46H371.32Z" style="fill:#5b66af"/><path d="M598.7,252.51h-229a1.6,1.6,0,0,1-1.59-1.6V223.14a1.59,1.59,0,0,1,1.59-1.59h229a1.59,1.59,0,0,1,1.59,1.59v27.77A1.6,1.6,0,0,1,598.7,252.51Zm-227.38-3.19H597.1V224.74H371.32Z" style="fill:#5b66af"/><path d="M606.73,402H369.39a1.6,1.6,0,0,1-1.59-1.6V298.53a1.6,1.6,0,0,1,1.59-1.6H606.73a1.6,1.6,0,0,1,1.59,1.6V400.35A1.6,1.6,0,0,1,606.73,402ZM371,398.76H605.13V300.12H371Z" style="fill:#5b66af"/><path d="M367.92,105.62H313.34a1.6,1.6,0,0,1-1.18-2.67l54.58-60.19a1.59,1.59,0,0,1,2.77,1.07V104A1.6,1.6,0,0,1,367.92,105.62Zm-51-3.19h49.39V48Z" style="fill:#5b66af"/><path d="M664.71,533.93,581.5,453.06a8.67,8.67,0,0,1-.18-12.25l19.19-19.74a8.65,8.65,0,0,1,12.24-.17l52,50.53a8.67,8.67,0,0,0,12.07,0L797.37,354.52a8.67,8.67,0,0,1,12.25.19l19.16,19.76a8.67,8.67,0,0,1-.19,12.25L676.77,533.93A8.66,8.66,0,0,1,664.71,533.93Z" style="fill:#fff"/><path d="M670.75,538a10.2,10.2,0,0,1-7.15-2.92L580.39,454.2a10.25,10.25,0,0,1-.21-14.5L599.36,420a10.28,10.28,0,0,1,14.5-.21l52,50.53a7,7,0,0,0,9.85,0L796.26,353.38a10.27,10.27,0,0,1,14.5.22l19.16,19.77a10.25,10.25,0,0,1-.22,14.49L677.88,535.08A10.22,10.22,0,0,1,670.75,538ZM606.72,420h-.11a7,7,0,0,0-5,2.14l-19.19,19.74a7,7,0,0,0-2,5,7,7,0,0,0,2.14,5l83.21,80.88h0a7,7,0,0,0,9.85,0L827.48,385.58a7.07,7.07,0,0,0,.15-10l-19.16-19.76a7.06,7.06,0,0,0-10-.15L677.92,472.58a10.22,10.22,0,0,1-14.29,0l-52-50.53A7,7,0,0,0,606.72,420Z" style="fill:#5b66af"/></svg>