<svg id="user-journey" xmlns="http://www.w3.org/2000/svg" viewBox="0 0 1019.9 573.41"><title>timeline</title><path d="M718.48,478.08A47.54,47.54,0,0,1,674,447.28H547.44a47.5,47.5,0,0,1-88.93,0h-125A14.26,14.26,0,0,1,332,447a47.52,47.52,0,0,1-44.25,31h-.29A47.48,47.48,0,0,1,243,447.28H137.39a17,17,0,1,1,0-34H243a47.48,47.48,0,0,1,44.46-30.78h.29a47.5,47.5,0,0,1,44.25,31,14.66,14.66,0,0,1,1.48-.22h125a47.5,47.5,0,0,1,88.93,0H674a47.5,47.5,0,0,1,88.93,0H864.72a17,17,0,1,1,0,34H763A47.55,47.55,0,0,1,718.48,478.08Zm-172.16-34H675.14a1.58,1.58,0,0,1,1.5,1.07,44.31,44.31,0,0,0,83.69,0,1.58,1.58,0,0,1,1.5-1.07H864.72a13.8,13.8,0,0,0,0-27.6H761.83a1.58,1.58,0,0,1-1.5-1.07,44.31,44.31,0,0,0-83.69,0,1.58,1.58,0,0,1-1.5,1.07H546.32a1.59,1.59,0,0,1-1.5-1.07,44.31,44.31,0,0,0-83.68,0,1.61,1.61,0,0,1-1.51,1.07H333.73a11.49,11.49,0,0,0-2.26.47,1.6,1.6,0,0,1-2-1,44.31,44.31,0,0,0-41.74-30.23h-.27a44.31,44.31,0,0,0-41.84,29.71,1.61,1.61,0,0,1-1.51,1.07H137.39a13.8,13.8,0,1,0,0,27.6H244.12a1.61,1.61,0,0,1,1.51,1.07,44.31,44.31,0,0,0,41.84,29.71h.27a44.32,44.32,0,0,0,41.74-30.23,1.59,1.59,0,0,1,2-1,11.19,11.19,0,0,0,2.26.47h125.9a1.61,1.61,0,0,1,1.51,1.07,44.31,44.31,0,0,0,83.68,0A1.59,1.59,0,0,1,546.32,444.09Zm172.16,3.19a17,17,0,1,1,17-17A17,17,0,0,1,718.48,447.28Zm0-30.79a13.8,13.8,0,1,0,13.8,13.8A13.82,13.82,0,0,0,718.48,416.49ZM503,447.28a17,17,0,1,1,17-17A17,17,0,0,1,503,447.28Zm0-30.79a13.8,13.8,0,1,0,13.8,13.8A13.81,13.81,0,0,0,503,416.49ZM287.47,447.28a17,17,0,1,1,17-17A17,17,0,0,1,287.47,447.28Zm0-30.79a13.8,13.8,0,1,0,13.8,13.8A13.81,13.81,0,0,0,287.47,416.49Z" style="fill:#5b66af"/><path d="M287.47,354.92a17.05,17.05,0,0,1-13.59-6.8L232.8,293.34H148.93a17,17,0,0,1-17-17V91.64a17,17,0,0,1,17-17H426a17,17,0,0,1,17,17V276.36a17,17,0,0,1-17,17H342.14l-41.08,54.78A17.05,17.05,0,0,1,287.47,354.92ZM148.93,77.83a13.82,13.82,0,0,0-13.8,13.81V276.36a13.81,13.81,0,0,0,13.8,13.8h84.66a1.6,1.6,0,0,1,1.28.63l41.56,55.42a13.8,13.8,0,0,0,22.08,0l41.56-55.42a1.6,1.6,0,0,1,1.28-.63H426a13.81,13.81,0,0,0,13.8-13.8V91.64A13.82,13.82,0,0,0,426,77.83Z" style="fill:#5b66af"/><path d="M718.48,354.92a17.05,17.05,0,0,1-13.58-6.8l-41.09-54.78H579.94a17,17,0,0,1-17-17V91.64a17,17,0,0,1,17-17H857a17,17,0,0,1,17,17V276.36a17,17,0,0,1-17,17H773.16l-41.09,54.78A17.05,17.05,0,0,1,718.48,354.92ZM579.94,77.83a13.82,13.82,0,0,0-13.8,13.81V276.36a13.81,13.81,0,0,0,13.8,13.8h84.67a1.58,1.58,0,0,1,1.27.63l41.57,55.42a13.79,13.79,0,0,0,22.07,0l41.57-55.42a1.58,1.58,0,0,1,1.27-.63H857a13.82,13.82,0,0,0,13.81-13.8V91.64A13.83,13.83,0,0,0,857,77.83Z" style="fill:#5b66af"/></svg>